<svg width="28" height="28" viewBox="0 0 28 28" fill="none" xmlns="http://www.w3.org/2000/svg">
<path d="M23.3333 3.5H4.66665C3.37981 3.5 2.33331 4.5465 2.33331 5.83333V22.1667C2.33331 23.4535 3.37981 24.5 4.66665 24.5H23.3333C24.6201 24.5 25.6666 23.4535 25.6666 22.1667V5.83333C25.6666 4.5465 24.6201 3.5 23.3333 3.5ZM4.66665 22.1667V8.16667H23.3333L23.3356 22.1667H4.66665Z" fill="#5683F6"/>
<path d="M10.8419 10.8418L6.51703 15.1666L10.8419 19.4915L12.4915 17.8418L9.81636 15.1666L12.4915 12.4915L10.8419 10.8418ZM17.1582 10.8418L15.5085 12.4915L18.1837 15.1666L15.5085 17.8418L17.1582 19.4915L21.483 15.1666L17.1582 10.8418Z" fill="#5683F6"/>
</svg>
