<svg width="55" height="55" viewBox="0 0 55 55" fill="none" xmlns="http://www.w3.org/2000/svg">
<path d="M0 0H55V55H0V0ZM50.4931 41.8825C50.0928 39.3739 48.4581 37.2656 43.6119 35.2978C41.9253 34.5064 40.0522 33.9594 39.49 32.6883C39.2822 31.9306 39.2517 31.5211 39.3861 31.0719C39.7314 29.5931 41.4853 29.15 42.8603 29.5594C43.7556 29.8344 44.5806 30.5219 45.0969 31.625C47.465 30.0758 47.465 30.0758 49.1181 29.0461C48.4978 28.0867 48.1892 27.6681 47.7767 27.2556C46.3314 25.6422 44.4064 24.8172 41.2806 24.8875L39.6672 25.0922C38.1181 25.4711 36.6392 26.2992 35.7469 27.3961C33.1344 30.3539 33.8892 35.5086 37.0517 37.6444C40.1775 39.9819 44.7547 40.4953 45.3383 42.6953C45.8883 45.3781 43.3461 46.2367 40.8314 45.9281C38.9767 45.5125 37.9439 44.5867 36.8103 42.8664L32.6181 45.2742C33.0978 46.3711 33.6478 46.8539 34.4728 47.8164C38.4603 51.8375 48.4306 51.6328 50.2181 45.5125C50.2822 45.3078 50.768 43.8992 50.3892 41.7328L50.4931 41.8825ZM29.9078 25.2786H24.7561C24.7561 29.7183 24.7347 34.1336 24.7347 38.5825C24.7347 41.4058 24.8783 43.9969 24.4169 44.7944C23.6622 46.3742 21.7097 46.1725 20.8267 45.8914C19.9192 45.4453 19.4578 44.825 18.9231 43.9328C18.7794 43.6944 18.6725 43.4867 18.6328 43.4867L14.4528 46.0656C15.1525 47.5108 16.1731 48.7514 17.49 49.5397C19.4486 50.71 22.0794 51.0889 24.8356 50.4717C26.6322 49.9522 28.1814 48.8858 28.985 47.2358C30.1583 45.1061 29.9078 42.4906 29.8986 39.5694C29.9231 34.8608 29.8986 30.1492 29.8986 25.4069L29.9078 25.2786Z" fill="#5683F6"/>
</svg>
