<svg width="701" height="634" viewBox="0 0 701 634" fill="none" xmlns="http://www.w3.org/2000/svg">
<path fill-rule="evenodd" clip-rule="evenodd" d="M477.879 496.001C478.805 494.391 479.692 492.97 480.448 491.499C480.924 490.558 481.658 490.369 482.693 490.394C488.898 490.553 495.103 490.726 501.314 490.78C506.588 490.83 511.872 490.741 517.152 490.686C523.099 490.622 529.047 490.34 534.989 490.493C542.903 490.701 550.614 492.103 557.771 495.288C566.32 499.097 572.788 504.897 577.197 512.539C580.012 517.418 581.644 522.594 582.296 528.092C583.237 536.057 582.619 543.838 579.826 551.456C576.364 560.897 569.793 568.123 560.663 573.537C553.637 577.703 545.931 580.164 537.672 581.571C528.932 583.062 520.164 582.582 511.396 582.606C501.779 582.641 492.168 582.453 482.551 582.354C480.87 582.339 480.629 582.052 481.072 580.6L481.483 579.263C482.419 576.598 482.923 576.479 485.913 576.034C487.984 575.731 490.13 575.028 491.867 573.988C492.874 573.384 493.29 571.809 493.685 570.595C494.024 569.535 494.041 568.371 494.052 567.252C494.189 550.287 494.331 533.328 494.408 516.373C494.424 512.089 494.315 507.794 494.052 503.515C493.865 500.518 492.097 498.468 488.153 497.759C485.087 497.21 481.998 496.784 478.914 496.293L477.879 496.001ZM565.921 537.077C565.504 533.699 565.302 530.291 564.634 526.963C563.034 518.974 559.168 512.014 552.377 506.561C541.397 497.749 528.176 496.392 514.32 497.442C511.166 497.68 510.487 498.656 510.438 501.588C510.361 505.749 510.284 509.909 510.279 514.07C510.257 527.265 510.257 540.46 510.279 553.655C510.284 557.41 510.328 561.164 510.449 564.909C510.58 568.743 512.119 571.987 516.27 573.473C522.815 575.816 529.699 576.093 536.566 575.137C547.536 573.616 555.208 567.836 560.356 559.173C564.431 552.298 565.581 544.794 565.921 537.077ZM592.586 582.007C592.455 579.951 593.386 578.253 594.536 576.692C594.848 576.271 595.921 576.291 596.661 576.157L602.937 575.033C605.155 574.607 606.321 573.26 606.633 571.293C606.841 569.996 607.039 568.683 607.055 567.371C607.192 556.984 607.323 546.597 607.378 536.21C607.433 525.809 607.389 515.407 607.389 505.006L607.34 503.02C607.115 499.676 605.33 497.943 601.661 497.452L593.703 496.358C592.723 496.239 592.367 495.813 592.723 495.025C593.336 493.683 593.922 492.291 594.788 491.083C595.111 490.637 596.201 490.463 596.934 490.478C600.735 490.528 604.536 490.785 608.337 490.78L641.421 490.602C647.795 490.597 653.951 491.603 659.668 494.361C665.961 497.393 669.482 502.083 670.49 508.473C671.542 515.184 669.291 520.841 663.869 525.333C661.64 527.186 658.754 528.394 656.169 529.9L655.326 530.376C657.724 531.173 660.008 531.862 662.231 532.684C668.738 535.096 673.913 538.865 676.651 544.883C678.814 549.633 678.814 554.587 677.533 559.51C675.539 567.217 669.926 572.343 662.626 576.222C655.775 579.862 648.359 581.982 640.462 582.339C633.178 582.671 625.862 582.547 618.561 582.621L614.333 582.641C607.302 582.497 600.264 582.334 593.227 582.166L592.586 582.007ZM622.91 551.847H622.981C622.981 555.107 622.932 558.366 622.997 561.625C623.041 563.735 622.959 565.904 623.463 567.935C624.219 570.971 625.752 573.711 629.52 574.582C634.608 575.766 639.805 576.004 644.953 575.196C651.399 574.181 656.541 571.259 659.362 565.706C661.454 561.58 661.766 557.207 661.048 552.739C660.096 546.855 656.64 542.585 650.895 539.787C647.127 537.949 643.107 536.825 638.825 536.676C634.027 536.513 629.224 536.503 624.427 536.369C623.079 536.334 622.893 536.953 622.899 537.954C622.926 542.58 622.91 547.211 622.91 551.847ZM633.124 529.682C635.747 529.563 638.715 529.529 641.667 529.261C647.319 528.751 651.3 526.18 653.376 521.292C654.433 518.81 654.389 516.254 654.416 513.674C654.499 506.952 650.161 501.444 643.102 499.166C637.653 497.408 632.034 497.378 626.382 497.517C624.093 497.571 623.069 498.478 623.036 500.563L622.696 527.751C622.68 528.83 623.194 529.296 624.356 529.331L633.124 529.682Z" fill="#5683F6"/>
<path fill-rule="evenodd" clip-rule="evenodd" d="M57.7394 576.781L57.3396 581.457C53.6155 581.457 50.1817 581.432 46.7479 581.467C40.2801 581.527 33.8123 581.621 27.339 581.705L26.7146 581.74C25.7891 581.64 24.1078 581.64 24.064 581.393C23.7901 580.001 23.8778 578.54 23.949 577.098C23.9544 576.935 24.5842 576.727 24.9512 576.648L29.9841 575.632C33.1222 574.894 34.2285 573.671 34.3763 570.739C34.5461 567.435 34.7159 564.126 34.7323 560.823C34.7816 552.689 34.7268 544.566 34.7652 536.433C34.7707 534.531 34.0423 533.115 32.0817 532.342C29.7486 531.411 27.4047 530.499 25.0443 529.638C23.9271 529.231 22.4758 529.009 22.6072 527.651C22.7386 526.27 24.1461 525.908 25.4714 525.636C30.959 524.501 36.452 523.397 41.923 522.188C43.6865 521.797 45.3733 521.138 47.4818 520.474C47.5913 521.505 47.7939 522.485 47.772 523.466L47.4489 528.127C47.4434 528.652 47.7446 529.355 48.1773 529.648C48.4402 529.831 49.3219 529.499 49.76 529.192C54.437 525.972 59.3878 523.194 65.0341 521.574C73.7802 519.063 81.2886 521.391 86.5461 528.211C88.3972 530.613 88.4026 530.613 90.9711 528.934C95.3798 526.037 99.991 523.481 105.15 521.797C116.475 518.097 127.357 522.792 131.295 533.11C132.73 536.854 133.278 540.723 133.267 544.675L133.163 570.917C133.157 573.081 133.951 574.315 136.229 574.988C138.787 575.746 141.438 576.266 144.318 576.95L143.65 581.462C140.375 581.462 137.363 581.442 134.351 581.467C126.99 581.527 119.63 581.561 112.275 581.715C110.993 581.745 110.659 581.457 110.594 580.372C110.38 576.9 110.347 576.905 113.962 576.123L115.178 575.84C118.71 574.969 119.887 573.988 119.915 570.749C119.997 561.447 120.211 552.12 119.69 542.838C119.148 533.209 110.698 528.082 100.38 530.549C97.0118 531.351 93.9613 532.758 91.1245 534.581C90.1661 535.2 89.9854 535.913 90.062 536.998C90.3523 541.099 90.533 545.205 90.5713 549.311C90.6371 556.498 90.5385 563.685 90.5713 570.877C90.5823 573.79 91.6831 574.904 94.865 575.578L99.5912 576.564L100.467 576.742C100.533 578.109 100.593 579.476 100.522 580.843C100.478 581.7 99.7446 581.774 98.9231 581.759C94.3283 581.655 89.728 581.517 85.1331 581.527C79.5416 581.536 73.9555 581.68 68.3694 581.769H67.055C67.055 580.318 66.9783 578.931 67.1098 577.549C67.1371 577.217 67.7834 576.752 68.227 576.648L73.7364 575.593C76.0749 575.073 77.1921 573.988 77.3235 571.838C77.9479 561.882 78.397 551.922 77.3619 541.971C77.1592 540.039 76.4637 538.078 75.5765 536.3C72.7561 530.663 66.4088 528.31 59.0866 530.004C55.609 530.807 52.4709 532.248 49.5026 534.066C48.1006 534.928 47.4325 536.067 47.4325 537.508C47.4325 547.439 47.4708 557.37 47.5037 567.296L47.5639 571.125C47.6296 573.795 48.8838 575.201 51.8137 575.776C53.6977 576.162 55.6035 576.425 57.7394 576.781Z" fill="#5683F6"/>
<path fill-rule="evenodd" clip-rule="evenodd" d="M388.841 521.49C389.69 525.224 389.674 528.583 386.64 531.129C383.628 533.66 379.816 532.808 376.097 532.243C376.442 534.016 376.826 535.522 377.012 537.048C378.365 548.385 372.97 556.801 361.344 561.61C356.951 563.423 352.291 564.097 347.532 564.443C345.166 564.612 343.096 566.246 342.871 568.005C342.641 569.788 343.879 571.62 346.354 572.155C349.273 572.784 352.318 572.963 355.314 573.275C361.743 573.938 368.244 574.241 374.597 575.281C384.203 576.846 389.564 584.429 387.872 593.157C386.366 600.923 381.393 606.575 374.46 610.909C362.778 618.229 349.963 620.369 336.316 616.634C328.512 614.495 323.008 609.854 321.107 602.345C320.154 598.585 321.168 595.182 324.295 592.632C328.013 589.61 332.06 586.916 335.954 584.063L337.214 582.918L335.768 582.002C331.798 580.298 328.621 577.965 327.389 573.914C326.967 572.542 327.405 571.64 328.692 570.937C330.883 569.743 333.063 568.53 335.226 567.296C336.244 566.722 337.252 566.127 338.2 565.464C339.492 564.572 339.377 563.908 337.833 563.393C334.24 562.195 331.047 560.456 328.572 557.781C324.437 553.319 323.265 548.004 323.605 542.392C324.136 533.625 329.399 527.85 337.953 524.135C348.123 519.721 358.326 519.444 368.693 523.466C372.527 524.952 376.568 525.269 380.681 525.011C383.754 524.813 386.437 523.763 388.841 521.49ZM351.365 584.3C343.731 584.241 341.338 585.093 336.858 589.219C331.841 593.845 331.869 600.259 336.874 604.905C340.675 608.427 345.418 610.076 350.692 610.572C356.853 611.146 362.921 610.913 368.518 608.125C374.487 605.138 377.456 599.591 376.114 594.004C375.002 589.392 371.245 587.282 366.672 586.069C361.47 584.692 356.092 584.429 351.365 584.3ZM336.37 540.178C336.65 542.095 336.765 544.036 337.236 545.914C338.457 550.778 340.796 555.052 346.146 557.217C352.428 559.768 360.451 558.673 363.2 550.698C365.084 545.235 364.854 539.811 362.581 534.482C361.568 532.104 359.936 530.093 357.598 528.617C352.143 525.175 342.302 524.719 338.293 532.327C336.989 534.799 336.48 537.429 336.37 540.178Z" fill="#5683F6"/>
<path fill-rule="evenodd" clip-rule="evenodd" d="M259.315 520.266C259.518 521.113 259.923 522.074 259.934 523.04C259.95 524.878 259.731 526.715 259.616 528.553V530.148L261.336 528.959C266.046 525.452 271.106 522.465 276.999 520.856C287.634 517.958 298.259 523.223 301.726 533.021C303.04 536.745 303.56 540.574 303.61 544.467C303.719 553.115 303.785 561.764 303.883 570.412C303.916 573.517 304.311 574.072 307.558 574.969C309.398 575.479 311.299 575.835 313.199 576.103C314.245 576.251 314.694 576.623 314.639 577.549L314.65 578.401C314.612 581.982 314.338 582.146 310.499 582.136C301.309 582.121 292.125 582.17 282.936 582.24C280.197 582.26 280.192 582.334 279.918 579.887L279.863 578.48C280.033 576.37 280.088 576.39 282.382 576.083C283.927 575.875 285.46 575.553 286.966 575.196C288.516 574.835 289.261 573.8 289.469 572.413C289.573 571.709 289.71 571.006 289.705 570.303C289.573 560.852 289.743 551.392 289.173 541.956C288.713 534.323 282.273 529.776 273.801 530.296C269.644 530.559 265.887 531.812 262.459 533.977C260.197 535.408 259.742 537.473 259.753 539.697C259.797 548.534 259.89 557.37 259.994 566.212C260.016 568.148 260.076 570.085 260.279 572.007C260.493 574.107 261.309 574.954 263.587 575.409C265.767 575.845 267.99 576.098 270.318 576.45L270.515 578.074C270.591 581.863 270.153 582.146 266.084 582.131C256.582 582.096 247.081 582.151 237.584 582.245C236.089 582.265 235.454 581.839 235.492 580.521L235.47 579.956C235.224 576.544 235.333 576.415 238.904 575.86L240.591 575.553C244.457 574.766 245.448 573.834 245.503 570.283C245.684 559.034 245.75 547.791 245.876 536.542C245.892 534.928 245.218 533.674 243.554 533.006C241.221 532.075 238.866 531.188 236.505 530.311C235.202 529.826 233.712 529.519 233.663 527.889C233.63 526.74 234.988 525.725 236.845 525.383C240.574 524.699 244.337 524.13 248.022 523.293C251.692 522.466 255.295 521.356 259.315 520.266Z" fill="#5683F6"/>
<path fill-rule="evenodd" clip-rule="evenodd" d="M464.768 549.648C464.593 560.154 461.576 568.648 453.361 575.023C442.955 583.112 426.723 585.861 413.453 579.813C407.79 577.232 403.628 573.275 400.917 568.138C396.761 560.238 395.72 551.932 397.889 543.422C400.035 535.007 405.671 528.91 414.105 524.962C422.78 520.905 431.915 519.32 441.548 521.45C453.733 524.14 462.49 533.125 464.232 544.566C464.544 546.572 464.664 548.603 464.768 549.648ZM450.655 555.339L450.184 555.29C450.184 554.299 450.245 553.309 450.173 552.318C449.774 546.146 448.24 540.267 444.286 535.101C440.535 530.207 435.425 527.32 428.776 526.899C421.334 526.423 415.08 530.187 412.883 537.062C409.587 547.385 410.704 557.445 416.498 566.9C419.023 571.021 422.763 574.062 427.774 575.662C437.594 578.788 446.301 574.741 448.859 565.647C449.801 562.289 450.075 558.777 450.655 555.339Z" fill="#5683F6"/>
<path fill-rule="evenodd" clip-rule="evenodd" d="M223.548 550.461C223.345 557.999 221.379 564.968 216.231 571.026C210.716 577.515 203.137 580.982 194.517 582.443C184.325 584.167 174.752 582.601 166.564 576.415C162.676 573.473 160.02 569.703 158.267 565.414C155.392 558.381 154.675 551.174 156.444 543.828C158.333 535.968 163.24 529.96 170.847 525.928C179.642 521.277 189.133 519.201 199.27 521.292C212.305 523.986 219.829 531.668 222.611 543.298C223.17 545.646 223.247 548.073 223.548 550.461ZM209.276 555.434L208.898 555.384V553.967C208.685 547.053 207.189 540.465 202.627 534.72C199.248 530.455 194.725 527.78 188.925 527.032C179.473 525.814 173.295 530.886 171.247 537.776C168.574 546.775 169.412 555.666 173.547 564.201C176.126 569.52 180.201 573.666 186.461 575.677C196.22 578.812 205.059 574.662 207.529 565.602C208.438 562.289 208.712 558.831 209.276 555.434Z" fill="#5683F6"/>
<path fill-rule="evenodd" clip-rule="evenodd" d="M451.061 166.148C457.78 183.716 462.611 201.652 464.204 220.236C466.176 243.297 465.278 266.201 459.9 288.881L459.21 290.694C457.523 290.699 455.803 290.506 454.155 290.739C440.228 292.72 426.318 294.77 412.402 296.811C398.015 298.921 383.617 300.947 369.257 303.196C364.17 303.988 357.871 303.042 355.818 309.402L354.832 309.704L355.528 271.674L354.821 179.912L361.524 178.872C372.483 177.253 383.442 175.603 394.417 174.023C407.506 172.146 420.606 170.313 433.705 168.481C439.489 167.678 445.277 166.93 451.061 166.148Z" fill="#5683F6"/>
<path fill-rule="evenodd" clip-rule="evenodd" d="M340.998 420.575C333.928 415.077 326.611 409.822 319.837 404.036C283.374 372.931 256.697 336.312 243.559 292.165C239.939 280.02 237.529 267.672 236.752 255.121C236.204 246.334 235.421 237.473 236.111 228.73C237.935 205.485 241.653 182.463 249.189 160.07L249.605 159.55C250.339 160.432 251.391 161.214 251.763 162.21C259.124 181.804 266.424 201.419 273.691 221.048C296.523 282.719 319.327 344.406 342.197 406.067C342.647 407.271 343.802 408.256 344.635 409.341L340.998 420.575Z" fill="#5683F6"/>
<path fill-rule="evenodd" clip-rule="evenodd" d="M451.061 166.148C445.272 166.925 439.483 167.678 433.705 168.481C420.605 170.313 407.505 172.146 394.417 174.023C383.447 175.598 372.488 177.248 361.524 178.872L354.821 179.912L354.766 175.96C354.542 172.711 354.169 169.461 354.12 166.212L353.37 104.03C353.194 91.0583 352.932 78.086 352.641 65.1187C352.461 57.06 352.269 48.9963 351.869 40.9475C351.65 36.6234 350.878 32.3191 350.571 27.9951C350.39 25.5086 350.631 23.0023 350.692 20.5059C354.109 26.4943 357.455 32.5272 360.966 38.4709C366.513 47.867 375.358 54.7915 383.327 62.345C414.795 92.2173 437.134 126.929 451.061 166.148Z" fill="#5683F6"/>
<path fill-rule="evenodd" clip-rule="evenodd" d="M354.837 309.704L355.823 309.402C357.877 303.042 364.175 303.988 369.263 303.196C383.622 300.947 398.02 298.921 412.407 296.811C426.323 294.775 440.233 292.725 454.16 290.739C455.809 290.506 457.528 290.699 459.215 290.694C456.614 299.094 454.566 307.678 451.263 315.846C447.512 325.108 442.977 334.153 438.163 343.019C430.967 356.268 422.002 368.631 411.585 379.959C403.557 388.687 394.608 396.765 385.643 404.735C380.681 409.138 374.843 412.729 369.399 416.692L367.987 415.82L362.91 411.897L357.658 401.476C354.038 389.281 352.143 376.868 351.825 364.248L351.924 362.128L352.641 352.945C352.877 349.81 353.194 346.679 353.342 343.544C353.868 332.271 354.339 320.987 354.837 309.704Z" fill="#5683F6"/>
<path fill-rule="evenodd" clip-rule="evenodd" d="M354.837 309.704C354.344 320.987 353.873 332.275 353.342 343.559C353.194 346.699 352.882 349.829 352.641 352.96L349.443 354.054C342.334 335.128 335.22 316.401 328.265 297.628C316.759 266.567 305.395 235.462 293.905 204.391C284.633 179.318 275.279 154.26 265.876 129.222C265.432 128.053 264.173 127.132 263.297 126.097L283.779 92.034C284.485 93.1386 285.411 94.1738 285.855 95.3625C295.329 120.723 304.787 146.087 314.163 171.477C326.365 204.515 338.484 237.567 350.675 270.609C351.163 271.927 351.962 273.145 352.729 274.626L355.533 271.674C355.297 284.354 355.067 297.024 354.837 309.704Z" fill="#5683F6"/>
<path fill-rule="evenodd" clip-rule="evenodd" d="M263.291 126.097C264.173 127.132 265.433 128.053 265.871 129.222C275.274 154.26 284.628 179.313 293.9 204.391C305.39 235.462 316.753 266.567 328.26 297.628C335.215 316.401 342.329 335.123 349.438 354.054L352.636 352.96L351.918 362.143L351.267 364.258C350.155 374.308 349.219 384.377 347.86 394.407C347.181 399.435 345.73 404.368 344.629 409.341C343.802 408.256 342.641 407.271 342.192 406.067C319.317 344.406 296.518 282.719 273.686 221.048C266.418 201.419 259.113 181.804 251.758 162.21C251.385 161.214 250.334 160.432 249.6 159.55L263.291 126.097Z" fill="#5683F6"/>
<path fill-rule="evenodd" clip-rule="evenodd" d="M355.527 271.674L352.723 274.626C351.957 273.145 351.157 271.927 350.67 270.609C338.479 237.567 326.359 204.515 314.157 171.477C304.782 146.087 295.323 120.723 285.849 95.3625C285.405 94.1738 284.48 93.1386 283.773 92.034L309.103 61.8992C309.902 62.8601 311.041 63.717 311.452 64.8017C318.484 83.4255 325.45 102.064 332.383 120.718C338.857 138.143 345.231 155.588 351.781 172.983C352.22 174.147 353.747 174.969 354.766 175.96L354.821 179.912L355.527 271.674Z" fill="#5683F6"/>
<path fill-rule="evenodd" clip-rule="evenodd" d="M354.766 175.96C353.742 174.974 352.22 174.152 351.781 172.983C345.237 155.588 338.857 138.143 332.383 120.718C325.45 102.064 318.484 83.4255 311.452 64.8017C311.041 63.717 309.902 62.8601 309.103 61.8992C317.339 54.6033 325.319 47.0448 333.889 40.0856C341.507 33.9041 347.63 27.2769 347.915 17.5043L348.517 15.5578L350.686 20.501C350.631 22.9974 350.385 25.5036 350.566 27.9901C350.878 32.3142 351.65 36.6185 351.864 40.9425C352.263 48.9914 352.455 57.0551 352.636 65.1138C352.926 78.0811 353.189 91.0533 353.364 104.026L354.114 166.207C354.169 169.461 354.547 172.711 354.766 175.96Z" fill="#5683F6"/>
<path fill-rule="evenodd" clip-rule="evenodd" d="M344.635 409.336C345.735 404.363 347.187 399.43 347.866 394.402C349.224 384.377 350.16 374.303 351.272 364.253L351.551 364.213L351.825 364.258C352.143 376.878 354.038 389.291 357.658 401.485C356.919 402.367 355.883 403.145 355.489 404.135C352.45 411.892 349.58 419.713 346.524 427.465C346.108 428.525 344.936 429.352 344.12 430.278L340.993 420.57L344.635 409.336Z" fill="#A9AA88"/>
<path fill-rule="evenodd" clip-rule="evenodd" d="M344.12 430.283C344.936 429.352 346.108 428.53 346.524 427.47C349.58 419.718 352.45 411.897 355.489 404.14C355.878 403.15 356.919 402.372 357.658 401.49L362.91 411.912C361.875 413.239 360.44 414.443 359.865 415.924L349.81 442.631C349.394 443.706 347.986 444.459 347.033 445.365L344.12 430.283Z" fill="#B6B598"/>
<path fill-rule="evenodd" clip-rule="evenodd" d="M347.033 445.36C347.981 444.454 349.394 443.701 349.81 442.626L359.865 415.919C360.434 414.438 361.875 413.234 362.91 411.907L367.992 415.825C365.539 418.019 364.175 420.555 364.996 423.76L363.452 428.331C362.751 429.114 361.732 429.798 361.387 430.694C357.877 439.788 354.531 448.931 350.993 458.02C350.544 459.17 349.301 460.076 348.43 461.096L347.033 445.36Z" fill="#C2C1A7"/>
<path fill-rule="evenodd" clip-rule="evenodd" d="M348.424 461.091C349.301 460.071 350.544 459.165 350.987 458.015C354.525 448.926 357.877 439.783 361.382 430.689C361.727 429.793 362.746 429.114 363.447 428.326L361.316 449.308C360.747 449.902 359.925 450.422 359.651 451.111L352.565 469.477C352.066 470.73 351.113 471.85 350.369 473.023C349.706 472.241 348.523 471.483 348.468 470.671C348.26 467.491 348.408 464.286 348.424 461.091Z" fill="#CECDB7"/>
<path fill-rule="evenodd" clip-rule="evenodd" d="M350.374 473.028C351.119 471.854 352.072 470.735 352.57 469.482L359.657 451.116C359.931 450.422 360.758 449.907 361.322 449.313L361.376 463.082L356.278 474.906L350.374 473.028Z" fill="#DBDAC7"/>
<path fill-rule="evenodd" clip-rule="evenodd" d="M356.278 474.906L361.377 463.082L362.428 477.07L356.278 474.906Z" fill="#EBE9DC"/>
<path fill-rule="evenodd" clip-rule="evenodd" d="M364.991 423.76C364.175 420.56 365.533 418.024 367.987 415.825L369.4 416.696L364.991 423.76Z" fill="#CECDB7"/>
<path fill-rule="evenodd" clip-rule="evenodd" d="M351.825 364.263L351.552 364.218L351.272 364.258L351.924 362.143L351.825 364.263Z" fill="#5683F6"/>
</svg>
