<svg width="61" height="55" viewBox="0 0 61 55" fill="none" xmlns="http://www.w3.org/2000/svg">
<path d="M30.856 32.4802C33.7058 32.4802 36.016 30.1699 36.016 27.3202C36.016 24.4704 33.7058 22.1602 30.856 22.1602C28.0063 22.1602 25.696 24.4704 25.696 27.3202C25.696 30.1699 28.0063 32.4802 30.856 32.4802Z" fill="#5683F6"/>
<path d="M15.9137 37.9842L14.7327 37.6811C5.96014 35.4571 0.92804 31.6753 0.92804 27.3203C0.92804 22.9622 5.96313 19.1834 14.7327 16.9594L15.9137 16.6593L16.2456 17.8328C17.1322 20.9053 18.2682 23.8998 19.6422 26.786L19.8963 27.3203L19.6422 27.8545C18.2668 30.7449 17.1276 33.7403 16.2456 36.8137L15.9137 37.9842V37.9842ZM14.1885 19.6907C7.52389 21.5756 3.43064 24.4509 3.43064 27.3203C3.43064 30.1836 7.5209 33.0619 14.1885 34.9438C15.0048 32.3386 15.9915 29.7904 17.1336 27.3203C15.9832 24.846 14.9993 22.2971 14.1885 19.6907V19.6907ZM45.7984 37.9842L45.4695 36.8077C44.5805 33.7346 43.4435 30.7393 42.0699 27.8515L41.8157 27.3203L42.0699 26.783C43.4453 23.8986 44.5785 20.9002 45.4695 17.8268L45.7984 16.6562L46.9794 16.9564C55.7549 19.1804 60.784 22.9592 60.784 27.3203C60.784 31.6783 55.7519 35.4571 46.9794 37.6811L45.7984 37.9842V37.9842ZM44.5725 27.3203C45.7685 29.9195 46.7641 32.4767 47.5236 34.9438C54.1912 33.0619 58.2844 30.1836 58.2844 27.3203C58.2844 24.4509 54.1942 21.5786 47.5236 19.6907C46.7081 22.2963 45.7223 24.845 44.5725 27.3203V27.3203Z" fill="#5683F6"/>
<path d="M13.7431 19.54L13.4057 18.3499C10.8724 9.47604 11.6391 3.11969 15.5127 0.904277C19.3005 -1.27757 25.3947 1.30098 31.7771 7.81601L32.6481 8.70706L31.7771 9.59505C29.5102 11.9407 27.4383 14.4655 25.5817 17.1446L25.2352 17.6389L24.634 17.6877C21.3695 17.9428 18.1312 18.4623 14.9515 19.241L13.7431 19.54V19.54ZM18.5951 2.66806C17.9081 2.66806 17.3008 2.81759 16.7886 3.11054C14.2491 4.56612 13.8014 9.63472 15.5496 16.4763C18.2823 15.8751 21.0395 15.4448 23.8182 15.2038C25.4269 12.9336 27.1819 10.7696 29.072 8.72537C25.0757 4.85907 21.3033 2.66806 18.5951 2.66806V2.66806ZM43.122 54.4954C39.4784 54.4954 34.7981 51.7612 29.94 46.7994L29.072 45.9114L29.94 45.0264C32.2072 42.677 34.2801 40.1492 36.1384 37.4678L36.4819 36.9795L37.0769 36.9216C40.3426 36.671 43.5821 36.1535 46.7625 35.3744L47.974 35.0693L48.3144 36.2624C50.8355 45.1302 50.0718 51.4957 46.2043 53.7111C45.2653 54.2407 44.2013 54.5114 43.122 54.4954V54.4954ZM32.6481 45.89C36.6414 49.7563 40.4169 51.9504 43.122 51.9504C43.8121 51.9504 44.4193 51.7978 44.9284 51.5079C47.471 50.0493 47.9219 44.9715 46.1675 38.13C43.4379 38.7342 40.6776 39.1675 37.8927 39.4086C36.2909 41.6823 34.5388 43.8476 32.6481 45.89V45.89Z" fill="#5683F6"/>
<path d="M47.9694 19.539L46.7581 19.2369C43.5783 18.4557 40.3393 17.9362 37.0739 17.6836L36.479 17.6317L36.1355 17.1373C34.2801 14.4567 32.2074 11.9317 29.938 9.5876L29.0702 8.69958L29.938 7.81461C36.3165 1.30242 42.4067 -1.2762 46.2 0.90266C50.07 3.1212 50.8397 9.47775 48.3098 18.3488L47.9694 19.539ZM37.8896 15.2026C40.8151 15.462 43.5873 15.8984 46.1632 16.4751C47.9142 9.63338 47.4665 4.56462 44.9243 3.10594C42.3975 1.65031 37.6412 3.878 32.6458 8.72399C34.5348 10.7686 36.2889 12.9291 37.8896 15.2026ZM18.5948 54.4954C17.5158 54.5108 16.4521 54.2401 15.5129 53.7111C11.6399 51.4957 10.8732 45.133 13.4031 36.2619L13.7343 35.0687L14.9456 35.3739C17.9018 36.1154 21.1585 36.6373 24.6298 36.9211L25.2247 36.9791L25.5712 37.4673C27.4234 40.1466 29.4964 42.6765 31.7657 45.0262L32.6366 45.9112L31.7657 46.7992C26.9113 51.7642 22.2318 54.4954 18.5948 54.4954V54.4954ZM15.5497 38.1326C13.8018 44.9743 14.2495 50.0522 16.7886 51.5109C19.3185 52.9452 24.0594 50.7328 29.0702 45.8898C27.181 43.8449 25.4264 41.6809 23.8172 39.4112C21.0361 39.1665 18.2743 38.7393 15.5497 38.1326V38.1326Z" fill="#5683F6"/>
<path d="M30.8592 39.3598C28.7477 39.3598 26.5809 39.274 24.4049 39.0996L23.8025 39.0494L23.4552 38.5704C22.2282 36.8731 21.0737 35.1283 19.9946 33.3403C18.9234 31.5476 17.9278 29.7141 17.0102 27.8442L16.7521 27.3209L17.0102 26.7917C17.9292 24.9232 18.9219 23.0901 19.9946 21.2985C21.061 19.5364 22.2259 17.7743 23.4552 16.0655L23.8025 15.5924L24.4049 15.5392C28.6982 15.1933 33.014 15.1933 37.3072 15.5392L37.9035 15.5954L38.2508 16.0684C40.7089 19.4647 42.8678 23.0526 44.705 26.7946L44.9601 27.3238L44.705 27.8472C42.8729 31.5917 40.7137 35.18 38.2508 38.5734L37.9035 39.0523L37.3072 39.1026C35.1374 39.2711 32.9675 39.3598 30.8592 39.3598V39.3598ZM25.2225 36.6871C29.0182 36.9621 32.7001 36.9621 36.4928 36.6871C38.61 33.7046 40.4921 30.5738 42.1233 27.3209C40.4979 24.0651 38.6155 20.9338 36.4928 17.9547C32.7416 17.6768 28.9737 17.6768 25.2225 17.9547C23.0979 20.9328 21.2155 24.0641 19.5919 27.3209C21.2266 30.572 23.1086 33.7026 25.2225 36.6871V36.6871Z" fill="#5683F6"/>
</svg>
