<svg width="35" height="28" viewBox="0 0 35 28" fill="none" xmlns="http://www.w3.org/2000/svg">
<g clip-path="url(#clip0_519_14)">
<path fill-rule="evenodd" clip-rule="evenodd" d="M19.471 1.35913C25.4781 1.35913 30.3459 6.22103 30.3459 12.2145C30.3459 18.2109 25.4752 23.0699 19.471 23.0699C16.4005 23.0699 13.6291 21.799 11.6496 19.7576H15.0932C15.3495 19.7576 15.5945 19.7206 15.8223 19.6495C16.9218 20.1898 18.1608 20.4911 19.471 20.4911C24.0511 20.4911 27.7624 16.7836 27.7624 12.2145C27.7624 7.64264 24.0511 3.93793 19.471 3.93793C18.1323 3.93793 16.8677 4.25637 15.7454 4.81932C15.4748 4.71697 15.1758 4.6601 14.8625 4.6601H11.6638C13.6405 2.62152 16.4091 1.35913 19.471 1.35913Z" fill="#5683F6"/>
<path d="M7.51099 9.97685H4.33797V9.1381C4.33797 8.74574 4.29525 8.49553 4.2155 8.38749C4.13574 8.27945 4.00187 8.22827 3.81388 8.22827C3.60881 8.22827 3.455 8.29935 3.34961 8.4472C3.24422 8.58936 3.19295 8.80829 3.19295 9.10114C3.19295 9.47929 3.25277 9.76361 3.3724 9.9541C3.48918 10.1418 3.81104 10.3749 4.33797 10.6478C5.85327 11.4297 6.80746 12.0723 7.20052 12.5699C7.59644 13.0703 7.79297 13.8749 7.79297 14.9838C7.79297 15.7912 7.68189 16.3855 7.46257 16.7693C7.24325 17.1531 6.8217 17.4716 6.19507 17.7303C5.56844 17.9919 4.84212 18.1198 4.00757 18.1198C3.09326 18.1198 2.31567 17.9691 1.66626 17.6706C1.01969 17.3721 0.600993 16.9939 0.398763 16.5305C0.199382 16.067 0.0996908 15.4102 0.0996908 14.563V13.818H3.27271V15.197C3.27271 15.6206 3.31828 15.8964 3.40658 16.0158C3.49487 16.1381 3.65438 16.1978 3.87939 16.1978C4.10726 16.1978 4.27531 16.121 4.38639 15.9675C4.49748 15.814 4.5516 15.5865 4.5516 15.2851C4.5516 14.6198 4.44621 14.182 4.23543 13.9773C4.01611 13.7725 3.48633 13.4285 2.63753 12.9452C1.78874 12.459 1.23047 12.1064 0.954183 11.8875C0.680745 11.6686 0.450033 11.3643 0.270589 10.9777C0.0911458 10.5881 0 10.0934 0 9.49066C0 8.62348 0.128174 7.9866 0.384522 7.5857C0.640869 7.18481 1.05387 6.87206 1.62923 6.6446C2.20174 6.41714 2.89103 6.30626 3.7028 6.30626C4.58862 6.30626 5.34343 6.43136 5.9672 6.67587C6.59098 6.92323 7.00399 7.23599 7.20622 7.61129C7.40845 7.9866 7.51099 8.62348 7.51099 9.52478V9.97685V9.97685ZM19.4596 0C22.8406 0 25.8997 1.36759 28.1156 3.57961C30.3288 5.78879 31.6988 8.84525 31.6988 12.2201C31.6988 14.6881 30.9668 16.9854 29.7022 18.9074L35 24.6706L31.3485 28.0028L26.2415 22.3932C24.3018 23.684 21.969 24.4403 19.4625 24.4403C16.0815 24.4403 13.0225 23.0727 10.8065 20.8607C10.459 20.5138 10.1314 20.1442 9.82666 19.7575H11.6325C11.6781 19.803 11.7236 19.8513 11.7692 19.8968C13.7374 21.8615 16.4575 23.0756 19.4596 23.0756C22.4618 23.0756 25.1819 21.8615 27.1501 19.8968C29.1182 17.9322 30.3345 15.2169 30.3345 12.2201C30.3345 9.2234 29.1211 6.50812 27.1529 4.54346C25.1847 2.5788 22.4646 1.36474 19.4625 1.36474C16.4604 1.36474 13.7402 2.5788 11.7721 4.54346C11.735 4.58042 11.6952 4.62023 11.6581 4.65719H9.84375C10.1428 4.27904 10.4618 3.91795 10.8036 3.57961C13.0196 1.36759 16.0787 0 19.4596 0ZM9.0092 6.53656H14.8625V8.79976H12.4329V10.9634H14.7115V13.1129H12.4329V15.6064H15.0932V17.8696H9.0092V6.53656ZM24.1451 13.1812C24.1451 14.3213 24.1138 15.1259 24.0511 15.5979C23.9913 16.0727 23.7976 16.5049 23.4701 16.8972C23.1425 17.2896 22.701 17.591 22.1427 17.8014C21.5845 18.0118 20.9379 18.117 20.1973 18.117C19.4938 18.117 18.8643 18.0175 18.3061 17.8184C17.7478 17.6194 17.2949 17.3237 16.956 16.9285C16.6142 16.5333 16.4119 16.0983 16.3464 15.6349C16.2838 15.1657 16.2496 14.3497 16.2496 13.184V11.2449C16.2496 10.1048 16.2809 9.30016 16.3436 8.82819C16.4034 8.35337 16.5999 7.9212 16.9246 7.52884C17.2493 7.13648 17.6937 6.83509 18.252 6.6247C18.8102 6.4143 19.4568 6.3091 20.1973 6.3091C20.9009 6.3091 21.5304 6.40861 22.0886 6.60764C22.6469 6.80666 23.0998 7.10236 23.4387 7.49756C23.7805 7.89562 23.9827 8.32778 24.0483 8.79123C24.1109 9.26036 24.1451 10.0764 24.1451 11.2421V13.1812V13.1812ZM20.7214 9.45938C20.7214 8.93339 20.6873 8.59789 20.6217 8.45004C20.5562 8.30504 20.4195 8.23112 20.2144 8.23112C20.0407 8.23112 19.9068 8.29082 19.8128 8.41024C19.7217 8.52681 19.6733 8.87937 19.6733 9.46223V14.7535C19.6733 15.4102 19.7046 15.8168 19.7644 15.9704C19.8242 16.1267 19.9666 16.2007 20.1888 16.2007C20.4167 16.2007 20.5619 16.1125 20.6274 15.9362C20.693 15.76 20.7214 15.3363 20.7214 14.671V9.45938Z" fill="#5683F6"/>
</g>
<defs>
<clipPath id="clip0_519_14">
<rect width="35" height="28" fill="white"/>
</clipPath>
</defs>
</svg>
