<svg width="81" height="36" viewBox="0 0 81 36" fill="none" xmlns="http://www.w3.org/2000/svg">
<path d="M54.7224 0L54.4693 1.31961C54.0776 3.82049 54.2194 4.536 55.2926 5.4641L56.3286 6.32136L55.2554 11.1071C54.6142 13.9624 53.8277 16.3552 53.3284 17.1416C52.8999 17.8201 52.4001 18.8189 52.2924 19.3555C52.1134 19.997 51.5059 20.6414 50.5776 21.212C49.7575 21.6777 48.1476 22.9264 47.0071 23.9287C46.0959 24.7489 45.4681 25.2519 45.1271 25.4677L44.0134 26.3486C43.727 26.7735 43.5116 27.2416 43.3755 27.7357C43.2977 28.097 43.3419 28.3364 43.4565 28.5121C43.5679 28.6806 43.7602 28.7989 44.0235 28.873C44.3349 28.9463 44.6557 28.9722 44.9753 28.9507C45.6978 28.9013 46.413 28.7746 47.1084 28.5729C47.3445 28.5085 47.53 28.4477 47.692 28.3939C47.9419 28.0869 48.519 27.5061 49.5416 26.4973C52.2551 23.8206 53.2911 22.3561 52.2215 22.751C51.8266 22.8928 52.0052 22.5347 52.6836 21.8195C54.1149 20.4255 54.935 18.3195 56.6494 11.7146C58.0061 6.50025 58.0061 6.42598 59.0053 6.42598C59.4743 6.42598 60.8006 6.50697 60.8006 6.50697V0H57.7562H54.7224ZM67.6787 10.6819C67.4629 10.6819 67.1053 11.0059 66.8926 11.3636C66.501 12.0048 66.9635 12.3964 72.8563 16.0751C76.3559 18.2924 79.1775 20.1825 79.1066 20.3275C79.0357 20.4324 76.1773 22.2917 72.7514 24.435C66.5346 28.2894 66.501 28.3262 67.0712 29.1127C67.7869 30.041 67.0712 30.3614 75.1409 25.326L81 21.5765V18.7549L74.4625 14.7184C70.9289 12.5044 67.8578 10.719 67.6787 10.6819ZM13.392 11.0768C13.2131 11.0768 10.1419 12.8993 6.60826 15.0761L0 19.1125V21.9341L6.57113 26.0416C10.2161 28.2894 13.2874 30.1487 13.4291 30.1487C13.5709 30.1487 13.8578 29.8247 14.1446 29.4335C14.5732 28.7551 14.2121 28.468 8.17764 24.6476C2.43 21.0399 1.8225 20.5401 2.39625 20.1489C2.754 19.899 5.4675 18.2182 8.39699 16.3991C15.0761 12.2918 14.7184 12.5753 14.1818 11.718C13.9691 11.3636 13.608 11.043 13.3954 11.0768H13.392ZM42.7004 11.1543C41.715 11.1476 39.5955 12.6495 33.2505 17.8302C32.9771 18.4815 32.9535 18.9302 33.0784 19.2206C33.1594 19.4199 33.3079 19.558 33.5138 19.6592C33.7163 19.7605 33.9795 19.8212 34.2698 19.8451C34.8469 19.8957 35.5286 19.8046 36.0787 19.6965L36.45 19.6122C36.5771 19.4417 36.7439 19.3049 36.936 19.2137C37.3275 18.9979 38.9711 17.4994 40.6146 15.8929C43.5071 12.9634 44.1855 11.6403 43.0078 11.2117C42.911 11.1733 42.8077 11.1538 42.704 11.1543H42.7004ZM50.1119 13.1895C49.2448 13.2131 47.6819 14.2189 45.0056 16.3552C43.6622 17.4454 42.8117 18.0327 42.3561 18.1542L40.5879 19.5515C39.9229 20.7665 39.825 21.519 40.0005 21.9341C40.0444 22.0366 40.1082 22.1293 40.1882 22.2067C40.2681 22.2844 40.3626 22.3456 40.4663 22.3865C40.724 22.4882 40.999 22.5396 41.2764 22.5384C41.9386 22.5311 42.5971 22.4347 43.2338 22.2512C43.5654 22.1621 43.8931 22.0589 44.2159 21.941L44.3139 21.9005L44.4925 21.8057C44.8303 21.3704 45.6062 20.5502 46.5782 19.6054C49.6498 16.6421 51.2191 14.5361 50.8984 13.7498C50.7534 13.3684 50.5035 13.176 50.1119 13.1895ZM41.9309 16.8345C41.6814 16.8615 41.1209 17.2935 40.1119 18.1777C38.6539 19.4669 37.0643 20.2096 36.5141 19.8787C36.3863 19.9075 36.258 19.9346 36.1294 19.9597C35.5691 20.0711 34.8705 20.1622 34.2461 20.1116C33.9519 20.0938 33.6636 20.0217 33.3956 19.899C33.1429 19.7836 32.9412 19.5794 32.8286 19.3251C32.7037 19.0214 32.7037 18.6435 32.8455 18.1607L30.6517 19.963L25.6871 24.0705V30.7295L41.9548 17.9145C41.9515 17.7744 41.9697 17.6342 42.0086 17.4994C42.1334 17.0471 42.1269 16.8176 41.9309 16.8379V16.8345ZM48.9309 18.991C48.6842 18.991 48.2728 19.3389 47.6146 20.0375C46.72 20.9925 45.3126 21.9171 44.567 22.1062L44.452 22.167C44.3297 22.2176 44.2058 22.265 44.081 22.3087C43.8785 22.3764 43.6153 22.4574 43.3115 22.5384C42.704 22.7036 41.9479 22.8555 41.2727 22.8385C40.9548 22.8381 40.6393 22.7765 40.3448 22.6562C40.0669 22.542 39.8443 22.3241 39.7237 22.0487C39.528 21.5797 39.6056 20.9216 40.0342 19.9869L25.6838 31.2896V35.3566H31.9882L45.36 24.8534C45.7075 24.4686 46.2307 23.9421 46.9363 23.284C48.826 21.5324 49.2549 20.9285 49.2549 20.0339C49.2549 19.3389 49.1771 18.9877 48.9309 18.9877V18.991ZM52.1134 25.5722L50.9692 26.7131C50.3281 27.3206 49.184 28.0699 48.4007 28.3906L48.2456 28.4579L48.2355 28.4749L48.2019 28.5085C48.1715 28.5324 48.1577 28.5356 48.1342 28.5457C47.8216 28.664 47.5041 28.7689 47.1825 28.8596C46.4673 29.0678 45.7318 29.1978 44.9886 29.2476C44.6375 29.2703 44.2847 29.2395 43.9425 29.1565C43.6456 29.0913 43.3836 28.9179 43.2066 28.6705C43.0446 28.421 42.9976 28.0869 43.0888 27.675C43.1613 27.3818 43.2686 27.0987 43.4091 26.8314L32.6194 35.3566H46.9699L48.6842 33.3924C51.0401 30.6449 52.1134 28.6806 52.1134 26.9999V25.5722Z" fill="#5683F6"/>
</svg>
