<svg width="55" height="55" viewBox="0 0 55 55" fill="none" xmlns="http://www.w3.org/2000/svg">
<g clip-path="url(#clip0_102_17)">
<path d="M0 0H55V55H0V0Z" fill="#5683F6"/>
<path d="M26.4086 20.3674H29.0469V24.9221H21.9141V45.1861L21.725 45.2377C21.4672 45.3064 18.0727 45.3064 17.3422 45.2291L16.7578 45.1775V24.9221H9.625V20.3674L11.8852 20.3416C13.1227 20.3244 16.3023 20.3244 18.9492 20.3416C21.5961 20.3588 24.9477 20.3674 26.4086 20.3674ZM46.5437 43.0377C45.4953 44.1463 44.3695 44.765 42.4961 45.2721C41.6797 45.4955 41.5422 45.5041 39.7031 45.4955C37.8641 45.4869 37.718 45.4869 36.8242 45.2549C34.5125 44.6619 32.6477 43.5018 31.3758 41.8604C31.0148 41.3963 30.4219 40.4338 30.4219 40.3135C30.4219 40.2791 30.5078 40.2018 30.6195 40.1502C30.7312 40.0986 30.9633 39.9525 31.1523 39.8408C31.3414 39.7291 31.6852 39.5229 31.9172 39.4025C32.1492 39.2822 32.8195 38.8869 33.4039 38.5346C33.9883 38.1822 34.5211 37.8986 34.5812 37.8986C34.6414 37.8986 34.7531 38.0189 34.8391 38.165C35.3547 39.033 36.5578 40.1416 37.4086 40.5197C37.9328 40.7432 39.093 40.9924 39.6516 40.9924C40.1672 40.9924 41.1125 40.7689 41.6195 40.5369C42.1609 40.2877 42.4359 40.0385 42.7625 39.54C42.9859 39.1877 43.0117 39.0932 43.0031 38.4229C43.0031 37.8041 42.9687 37.6322 42.7969 37.3486C42.3156 36.558 41.6625 36.1455 39.0156 34.9768C36.2828 33.765 35.0539 33.0432 34.057 32.0721C33.318 31.3502 33.1719 31.1525 32.7078 30.2502C32.1062 29.09 32.0289 28.7119 32.0203 26.9846C32.0117 25.7729 32.0375 25.3775 32.1664 24.965C32.3469 24.3463 32.9312 23.1518 33.1977 22.851C33.7477 22.2064 33.9453 22.0088 34.332 21.6908C35.5008 20.7283 37.3227 20.0924 39.0672 20.0322C39.2648 20.0322 39.918 20.0666 40.5281 20.1096C42.2812 20.2557 43.4758 20.6854 44.6273 21.6049C45.4953 22.2924 46.8102 23.908 46.6812 24.1229C46.5953 24.2518 43.1664 26.5377 42.943 26.6064C42.8055 26.6494 42.7109 26.5979 42.5219 26.3744C41.3531 24.9736 40.8805 24.6728 39.7461 24.6041C38.9383 24.5525 38.5086 24.6471 37.9672 25.008C37.4 25.3861 37.125 25.9619 37.125 26.7611C37.1336 27.9299 37.5805 28.4799 39.2305 29.2963C40.2961 29.8205 41.207 30.2502 41.2758 30.2502C41.3789 30.2502 43.5875 31.3502 44.1633 31.6939C46.8445 33.2666 47.9359 34.8822 48.2195 37.6666C48.4258 39.7635 47.8328 41.6799 46.5437 43.0377Z" fill="#3F3F50"/>
</g>
<defs>
<clipPath id="clip0_102_17">
<rect width="55" height="55" fill="white"/>
</clipPath>
</defs>
</svg>
