<svg width="27" height="28" viewBox="0 0 27 28" fill="none" xmlns="http://www.w3.org/2000/svg">
<path d="M6.77635 0C5.89463 0 5.04902 0.368749 4.42555 1.02513C3.80208 1.6815 3.45181 2.57174 3.45181 3.5V8.75H7.60749C8.70964 8.75 9.76665 9.21094 10.546 10.0314C11.3253 10.8519 11.7632 11.9647 11.7632 13.125V19.25H16.75V22.75H11.7632V24.5H20.9057C21.1261 24.5 21.3375 24.4078 21.4934 24.2437C21.6492 24.0796 21.7368 23.8571 21.7368 23.625C21.7368 23.3929 21.6492 23.1704 21.4934 23.0063C21.3375 22.8422 21.1261 22.75 20.9057 22.75H18.4122V19.25H23.3991C24.2808 19.25 25.1264 18.8813 25.7499 18.2249C26.3733 17.5685 26.7236 16.6783 26.7236 15.75V3.5C26.7236 2.57174 26.3733 1.6815 25.7499 1.02513C25.1264 0.368749 24.2808 0 23.3991 0H6.77635Z" fill="#5683F7"/>
<path d="M2.62067 10.5C1.95938 10.5 1.32517 10.7766 0.857562 11.2688C0.389956 11.7611 0.127258 12.4288 0.127258 13.125V25.375C0.127258 26.0712 0.389956 26.7389 0.857562 27.2312C1.32517 27.7234 1.95938 28 2.62067 28H7.60749C8.26879 28 8.903 27.7234 9.3706 27.2312C9.83821 26.7389 10.1009 26.0712 10.1009 25.375V13.125C10.1009 12.4288 9.83821 11.7611 9.3706 11.2688C8.903 10.7766 8.26879 10.5 7.60749 10.5H2.62067ZM3.45181 23.625C3.45181 23.3929 3.53937 23.1704 3.69524 23.0063C3.85111 22.8422 4.06251 22.75 4.28294 22.75H5.94522C6.16565 22.75 6.37705 22.8422 6.53292 23.0063C6.68879 23.1704 6.77636 23.3929 6.77636 23.625C6.77636 23.8571 6.68879 24.0796 6.53292 24.2437C6.37705 24.4078 6.16565 24.5 5.94522 24.5H4.28294C4.06251 24.5 3.85111 24.4078 3.69524 24.2437C3.53937 24.0796 3.45181 23.8571 3.45181 23.625Z" fill="#5683F7"/>
</svg>
